PathFileType	4	(X/Y/Z)	Patient4_TMGait_0pt2_01_left_02.trc.trc
DataRate	CameraRate	NumFrames	NumMarkers	Units	OrigDataRate	OrigDataStartFrame	OrigNumFrames
42.424242424242	42.424242424242	4	33	mm	42.424242424242	53	       141
Frame#	Time	Sacral			L.Shoulder			Chest			R.Shoulder			Neck			R.ASIS			L.ASIS			R.Thigh.Superior			R.Thigh.Lateral			R.Thigh.Inferior			R.Patella			L.Thigh.Superior			L.Thigh.Lateral			L.Thigh.Inferior			L.Patella			L.Shank.Superior			L.Shank.Lateral			L.Shank.Inferior			R.Shank.Superior			R.Shank.Lateral			R.Shank.Inferior			R.Heel			R.Midfoot.Superior			R.Midfoot.Lateral			R.Toe			L.Heel			L.Midfoot.Lateral			L.Midfoot.Superior			L.Toe			L.Elbow			L.Wrist			R.Elbow			R.Wrist			
		X1	Y1	Z1	X2	Y2	Z2	X3	Y3	Z3	X4	Y4	Z4	X5	Y5	Z5	X6	Y6	Z6	X7	Y7	Z7	X8	Y8	Z8	X9	Y9	Z9	X10	Y10	Z10	X11	Y11	Z11	X12	Y12	Z12	X13	Y13	Z13	X14	Y14	Z14	X15	Y15	Z15	X16	Y16	Z16	X17	Y17	Z17	X18	Y18	Z18	X19	Y19	Z19	X20	Y20	Z20	X21	Y21	Z21	X22	Y22	Z22	X23	Y23	Z23	X24	Y24	Z24	X25	Y25	Z25	X26	Y26	Z26	X27	Y27	Z27	X28	Y28	Z28	X29	Y29	Z29	X30	Y30	Z30	X31	Y31	Z31	X32	Y32	Z32	X33	Y33	Z33	

53	4.555714285714	886.061778783688	1000.503974803587	435.883905877938	1048.361086516537	1430.790834601911	244.549884038154	1161.389876440788	1365.223320244656	399.731372412029	1087.603481426985	1437.651741695326	578.035638543802	1039.569587162099	1492.365194666453	400.939465809517	1120.213214486039	935.401836425095	541.477118866637	1096.046462206008	961.038060406241	269.428874725208	1153.567810630244	730.847182438523	521.485783825246	1074.889931290595	626.521717699420	596.183350871916	1148.907635010211	563.664180379836	521.375815629212	1142.270332525251	461.200399321036	545.286194240655	1157.037390867475	755.005404689934	308.638670274830	1079.976201063819	627.471780601705	253.574180714508	1168.226598394837	559.768564752285	321.119558213399	1172.344090865746	488.130101342745	332.158274272855	1142.274813153858	413.800226150001	327.672773297674	1049.863933975438	300.155131870988	280.491770165597	1095.568825776910	190.788853178952	356.352765154445	1073.828387038015	389.396442878455	559.704115152178	963.326785091033	337.086478809417	629.978033507051	958.353695662349	226.536909269543	583.172288232621	764.407260687235	129.658723211381	571.138571525049	941.807514611160	114.454316733817	606.198953437694	838.652269113434	92.818132519055	645.429999757271	1030.364022368326	34.854066345624	636.308320965669	962.727074692191	38.396075286730	402.331979767030	1035.772231244496	36.038217348394	320.586750308874	1119.409558676182	96.914614742307	346.800233212283	1247.377116451379	45.501930829456	316.884390606433	1054.575100536212	1086.325909345334	108.185586861203	1149.742561365299	841.712943189064	113.006352881382	1162.644584020653	1097.781086289640	703.659574497362	1369.685312367358	943.669169048040	697.216790438976	
54	4.579285714286	884.159553053811	999.059721040429	431.349033936959	1048.806034662358	1430.185486014965	242.290882398206	1159.799843350653	1364.593692036938	398.891409853140	1083.293247532242	1436.173998148864	576.505537415360	1037.963163088997	1491.387509133122	398.692422098513	1117.878245490040	934.857535725096	539.144228218966	1096.056654919328	960.204680726288	266.876064887641	1157.048289250505	732.582742573004	518.847008698400	1081.444594517604	626.483383561967	593.503454158913	1157.836782528201	565.246649067415	519.135512621591	1152.818395532647	461.404049623146	543.956887443966	1157.213296555679	754.081027825897	306.814256695951	1080.692147129091	626.235882738394	251.881356746575	1168.555661613145	558.788795225313	320.349249238698	1172.693324037153	486.989186332670	331.687850968190	1141.777582026000	412.435530362822	327.332764174097	1048.580287816840	299.551535426851	279.957779397201	1092.354484752917	189.995354043562	356.445315111846	1082.466162682123	390.021198639008	558.136231058091	969.696479155580	341.623869417957	627.893202656547	961.853548357908	230.804673817456	581.905110404268	765.003725529398	141.603712307511	568.995230927264	941.532997800199	117.938359011174	605.286271144393	836.931062693665	101.365814907750	643.774001457138	1025.435992852912	34.206829209058	635.947592795769	958.044930063890	38.409542492872	402.283966971377	1031.113436307768	36.037726230488	320.571273028445	1114.806557694516	96.801157107991	346.940564625921	1242.751727112935	45.274149106819	316.910535792214	1065.633638778885	1086.299729237656	104.834859589055	1171.756751942962	846.278240016783	111.210836490438	1140.367049316602	1092.038287425304	702.344892874772	1330.665201053613	918.078898042129	700.777680640407	
55	4.602857142857	882.174097000824	997.776559533136	427.084546985559	1049.515654278041	1429.587293572634	240.284454088077	1158.336436049016	1363.884476900376	398.340613759770	1079.066010683973	1434.727968173544	575.148562875250	1036.622178953055	1490.467863117902	396.605137549452	1115.347735728140	934.419068864920	537.235704126329	1095.968995975148	959.352800299474	264.708810568440	1160.381394365551	734.722949687515	516.511227916754	1088.022920032313	626.850709239656	591.161286923765	1166.688711051978	567.364046763834	517.110681167238	1163.399790769973	462.197305146768	542.710975173883	1157.202643186748	753.156171788342	305.300887603509	1081.127072853721	625.059710965855	250.457278615637	1168.602406184745	557.830621461747	319.833844113241	1172.761490041324	485.896072437474	331.451738051873	1141.031123192989	411.143539127153	327.170017135330	1047.109611657123	298.992180551325	279.558131670336	1089.052876042907	189.241404506446	356.584194595810	1091.283139711754	391.111643283921	556.577980040606	976.417413848426	346.369261460995	625.802205064680	965.852636718427	235.333802516565	580.473498751170	766.338341698254	153.508388439699	566.591137542416	941.968028987253	121.793702841239	604.065786204483	836.013008470452	110.078176325990	641.848361535077	1021.428074446310	33.587497354728	635.302381152752	953.356510082810	38.426381516480	402.232530338291	1026.453202242538	36.041924228098	320.556600541895	1110.204941671166	96.690378500741	347.086230497337	1238.122832599072	45.036725662783	316.942800213320	1076.837012804303	1086.715971354302	101.757694925299	1194.308598904971	852.097887436567	109.944150886847	1117.568384180459	1087.400717508681	700.756100515205	1288.870147791803	894.943376259321	703.254581253052	
56	4.626428571429	880.139968052500	996.748204366144	423.108088815132	1050.517398557617	1429.076166715855	238.550123966125	1157.008110977241	1363.183486454720	398.103635450003	1074.931750531023	1433.436252886963	573.969009795970	1035.562585382294	1489.695326059587	394.681430445235	1112.625642811764	934.172245696449	535.778102777275	1095.800244308196	958.553321320220	262.962519122275	1163.400497742061	737.276067131726	514.507412268036	1094.372091818902	627.683559595301	589.184174290775	1175.130066489512	570.016405738871	515.310448128969	1173.669950744486	463.627569270407	541.558088296851	1156.934260449461	752.249295724392	304.091055414776	1081.140770482313	624.008207115865	249.292806534174	1168.196430371579	556.919594788564	319.535083732608	1172.343549817348	484.891306080939	331.412597860446	1139.868789000193	409.980386046332	327.146034315119	1045.319680499867	298.496200343948	279.273557157496	1085.600068768770	188.558975168746	356.747326356918	1100.022426011028	392.679807892757	555.057957210365	983.317363056611	351.100868299126	623.748471853708	970.385981177554	239.881578988076	578.910453016925	768.579178646443	164.571333570733	564.039844641316	943.407273973938	125.806104983552	602.566381262299	836.253137269302	118.366728863200	639.731343277409	1018.972227448796	33.088599830654	634.344648262445	948.656672493803	38.444542344966	402.179080192035	1021.786872968619	36.049362124923	320.541796011652	1105.596768360882	96.586367798328	347.226825225198	1233.485438582073	44.799278471954	316.979554481060	1088.121218227346	1087.679370362777	98.933811942495	1217.227558843964	859.321270929333	109.144684558301	1094.425942728741	1084.082280757655	698.867712881469	1244.952498197181	874.926535022325	704.573322187466	
